<svg width="50" height="50" viewBox="0 0 50 50" fill="none" xmlns="http://www.w3.org/2000/svg">
<path d="M35.7422 7.61719L35.7422 11.0498C35.7422 11.2842 35.8447 11.5039 36.0254 11.6504C36.4404 11.9922 36.8408 12.3584 37.2217 12.7441C38.8009 14.3218 40.0595 16.1906 40.9277 18.2471C41.8276 20.3777 42.2893 22.6676 42.2852 24.9805C42.2852 27.3193 41.8262 29.585 40.9277 31.7139C40.0595 33.7704 38.8009 35.6391 37.2217 37.2168C35.6478 38.7973 33.7823 40.0575 31.7285 40.9277C29.5996 41.8311 27.3389 42.2852 25 42.2852C22.6611 42.2852 20.4004 41.8262 18.2715 40.9277C16.2158 40.0586 14.3652 38.8086 12.7783 37.2168C11.1914 35.625 9.94141 33.7744 9.07226 31.7139C8.17383 29.585 7.71484 27.3193 7.71484 24.9805C7.71484 22.6416 8.16894 20.376 9.07226 18.2471C9.9414 16.1865 11.1914 14.3359 12.7783 12.7441C13.1641 12.3584 13.5645 11.9971 13.9746 11.6504C14.1553 11.5039 14.2578 11.2793 14.2578 11.0498L14.2578 7.61719C14.2578 7.30957 13.916 7.11914 13.6572 7.29004C7.83691 11.0352 3.98437 17.5879 4.0039 25.0342C4.0332 36.7334 13.5303 46.1133 25.2148 45.9961C36.7139 45.8789 45.9961 36.5137 45.9961 24.9805C45.9961 17.5537 42.1484 11.0303 36.3428 7.29004C36.084 7.12402 35.7422 7.30957 35.7422 7.61719ZM24.6924 3.27637L19.2236 10.2051C19.0186 10.4639 19.2041 10.8398 19.5312 10.8398L23.2422 10.8398L23.2422 26.1719C23.2422 26.3867 23.418 26.5625 23.6328 26.5625L26.3672 26.5625C26.582 26.5625 26.7578 26.3867 26.7578 26.1719L26.7578 10.8398L30.4688 10.8398C30.7959 10.8398 30.9814 10.459 30.7764 10.2051L25.3076 3.27637C25.2711 3.22968 25.2244 3.19192 25.1711 3.16595C25.1178 3.13999 25.0593 3.12649 25 3.12649C24.9407 3.12649 24.8822 3.13999 24.8289 3.16595C24.7756 3.19192 24.7289 3.22968 24.6924 3.27637Z" fill="url(#paint0_linear_3_13)"/>
<defs>
<linearGradient id="paint0_linear_3_13" x1="4.00383" y1="24.5618" x2="45.9961" y2="24.5618" gradientUnits="userSpaceOnUse">
<stop stop-color="#FF6600"/>
<stop offset="0.995" stop-color="#FFCC00"/>
</linearGradient>
</defs>
</svg>
