<svg width="18" height="20" viewBox="0 0 18 20" fill="none" xmlns="http://www.w3.org/2000/svg">
<g id="seat">
<path id="seat_2" d="M2.1 6.00006C2.1 5.78259 2.20975 5.55674 2.38322 5.38327C2.55669 5.20981 2.78254 5.10006 3 5.10006H15C15.2175 5.10006 15.4433 5.20981 15.6168 5.38327C15.7903 5.55674 15.9 5.78258 15.9 6.00006V17.9001H2.1V6.00006Z" fill="black" stroke="#9D0DC9" stroke-width="0.2"/>
<path id="footer" d="M2 2.5C2 3.25 2.5 4 3 4H15C15.5 4 16 3.24991 16 2.5C16 1.75009 15.5 0.999978 15 1H3C2.5 0.999992 2 1.75 2 2.5Z" fill="black" stroke="#9D0DC9" stroke-width="0.2"/>
<path id="back" d="M3 8.00009C3 7.00004 1 7.00006 1 8.00009V18C0.999997 18.5001 1.5 19.0001 2 19.0001H16C16.5 19.0001 17 18.5001 17 18V8.00009C16.9999 7.00009 15 7.00003 15 8.00009V16.0001C15 16.5001 14.5 17.0001 14 17.0001H4C3.5 17.0001 3 16.5001 3 16.0001V8.00009Z" fill="black" stroke="#9D0DC9" stroke-width="0.2"/>
<g id="x">
<rect id="Rectangle 5" x="11.6317" y="8" width="0.880177" height="7.96443" rx="0.440088" transform="rotate(45 11.6317 8)" fill="#9D0DC9"/>
<rect id="Rectangle 6" x="6" y="8.62238" width="0.880177" height="7.96443" rx="0.440088" transform="rotate(-45 6 8.62238)" fill="#9D0DC9"/>
</g>
</g>
</svg>
